<?xml version="1.0" encoding="utf-8"?>
<!-- Generator: Adobe Illustrator 20.1.0, SVG Export Plug-In . SVG Version: 6.00 Build 0)  -->
<svg version="1.1" id="Layer_1" xmlns="http://www.w3.org/2000/svg" xmlns:xlink="http://www.w3.org/1999/xlink" x="0px" y="0px"
	 viewBox="0 0 47 40" style="enable-background:new 0 0 47 40;" xml:space="preserve">
<style type="text/css">
	.st0{fill:#ED527F;}
</style>
<path class="st0" d="M36.8,20.9c-1.6-1.7-3.2-3.4-4.8-5.1c-0.5-0.5-1-0.5-1.5-0.1c-0.2,0.2-0.5,0.4-0.7,0.7c-0.7,0.7-0.7,1.1,0,1.8
	c1.5,1.6,3,3.2,4.5,4.8c-0.1,0.2-0.2,0.3-0.3,0.4c-1.4,1.5-2.9,3.1-4.3,4.6c-0.5,0.6-0.5,1,0.1,1.5c0.3,0.3,0.6,0.6,0.9,0.8
	c0.5,0.4,1,0.4,1.4,0c2.1-2.2,4.1-4.4,6.2-6.6c0.5-0.5,0.4-0.9,0-1.4C37.7,21.9,37.2,21.4,36.8,20.9z"/>
<path class="st0" d="M16.5,18.1c0.6-0.6,0.6-1-0.1-1.6c-0.3-0.3-0.6-0.6-0.9-0.8c-0.4-0.4-0.9-0.4-1.3,0c-2.1,2.2-4.2,4.5-6.3,6.7
	c-0.4,0.4-0.4,0.8,0,1.3c0.3,0.4,0.7,0.8,1.1,1.2c1.7,1.8,3.4,3.6,5.1,5.4c0.5,0.6,1,0.6,1.5,0c0.3-0.3,0.6-0.5,0.8-0.8
	c0.5-0.5,0.5-0.9,0.1-1.5c-0.5-0.5-1-1.1-1.5-1.6c-1.1-1.1-2.1-2.3-3.2-3.4c0.2-0.2,0.3-0.3,0.4-0.4C13.7,21.1,15.1,19.6,16.5,18.1z
	"/>
<path class="st0" d="M25.7,15.8c-0.6-0.2-1.2-0.3-1.8-0.5c-0.6,0-0.8,0.3-0.9,0.8c-1,4.4-2,8.8-3,13.2c-0.1,0.5,0.1,0.9,0.7,1
	c0.4,0.1,0.9,0.2,1.3,0.3c0.7,0.1,1-0.1,1.2-0.7c0.2-0.9,0.4-1.8,0.6-2.8c0.8-3.5,1.5-6.9,2.3-10.4C26.2,16.4,26.1,16,25.7,15.8z"/>
<path class="st0" d="M43.1,34.5c0,1.4-1,2.4-2.5,2.4c-11.7,0-23.4,0-35.1,0c-1.6,0-2.5-1-2.5-2.5c0-8.3,0-16.5,0-24.8
	c0-0.1,0-0.3,0-0.4c13.3,0,26.7,0,40,0c0,0.5,0,0.9,0,1.4C43.1,18.6,43.1,26.5,43.1,34.5z M4.6,3.1c0.8,0,1.5,0.7,1.5,1.5
	S5.4,6.1,4.6,6.1S3.1,5.4,3.1,4.6S3.7,3.1,4.6,3.1z M9.2,3.1c0.8,0,1.5,0.7,1.5,1.5S10,6.1,9.2,6.1S7.7,5.4,7.7,4.6S8.4,3.1,9.2,3.1
	z M13.8,3.1c0.8,0,1.5,0.7,1.5,1.5s-0.7,1.5-1.5,1.5s-1.5-0.7-1.5-1.5S13,3.1,13.8,3.1z M46.2,5.5c0-3.2-2.3-5.5-5.5-5.5
	C34.8,0,29,0,23.1,0C17.3,0,11.4,0,5.6,0C2.3,0,0,2.3,0,5.6c0,2.4,0,4.8,0,7.3c0,7.2,0,14.5,0,21.7c0,1,0.3,2,0.8,2.9
	C1.9,39.1,3.4,40,5.4,40c3.9,0,7.8,0,11.6,0c7.9,0,15.8,0,23.7,0c0.9,0,1.8-0.2,2.5-0.6c2.1-1.2,2.9-3,2.9-5.3
	C46.1,24.6,46.2,15,46.2,5.5z"/>
</svg>
