<svg id="code" xmlns="http://www.w3.org/2000/svg" viewBox="0 0 46.2 40">
  <path id="Path_1" data-name="Path 1" d="M36.8,20.9,32,15.8a1.007,1.007,0,0,0-1.5-.1,4.62,4.62,0,0,0-.7.7c-.7.7-.7,1.1,0,1.8L34.3,23a1.38,1.38,0,0,1-.3.4c-1.4,1.5-2.9,3.1-4.3,4.6-.5.6-.5,1,.1,1.5a6.47,6.47,0,0,0,.9.8.965.965,0,0,0,1.4,0c2.1-2.2,4.1-4.4,6.2-6.6.5-.5.4-.9,0-1.4A6.73,6.73,0,0,1,36.8,20.9Z"/>
  <path id="Path_2" data-name="Path 2" d="M16.5,18.1c.6-.6.6-1-.1-1.6a6.47,6.47,0,0,0-.9-.8.854.854,0,0,0-1.3,0c-2.1,2.2-4.2,4.5-6.3,6.7a.853.853,0,0,0,0,1.3A11.985,11.985,0,0,0,9,24.9l5.1,5.4a.85.85,0,0,0,1.5,0,6.034,6.034,0,0,0,.8-.8,1,1,0,0,0,.1-1.5c-.5-.5-1-1.1-1.5-1.6-1.1-1.1-2.1-2.3-3.2-3.4l.4-.4C13.7,21.1,15.1,19.6,16.5,18.1Z"/>
  <path id="Path_3" data-name="Path 3" d="M25.7,15.8c-.6-.2-1.2-.3-1.8-.5-.6,0-.8.3-.9.8L20,29.3a.768.768,0,0,0,.7,1c.4.1.9.2,1.3.3.7.1,1-.1,1.2-.7.2-.9.4-1.8.6-2.8.8-3.5,1.5-6.9,2.3-10.4A.74.74,0,0,0,25.7,15.8Z"/>
  <path id="Path_4" data-name="Path 4" d="M40.6,36.9H5.5A2.312,2.312,0,0,1,3,34.4V9.2H43v1.4C43.1,18.6,42.1,36.9,40.6,36.9ZM4.6,3.1A1.538,1.538,0,0,1,6.1,4.6,1.538,1.538,0,0,1,4.6,6.1,1.538,1.538,0,0,1,3.1,4.6,1.473,1.473,0,0,1,4.6,3.1Zm4.6,0a1.538,1.538,0,0,1,1.5,1.5,1.5,1.5,0,0,1-3,0A1.538,1.538,0,0,1,9.2,3.1Zm4.6,0a1.538,1.538,0,0,1,1.5,1.5,1.5,1.5,0,0,1-3,0A1.538,1.538,0,0,1,13.8,3.1ZM46.2,5.5A5.3,5.3,0,0,0,40.7,0H5.6A5.355,5.355,0,0,0,0,5.6v29a6.026,6.026,0,0,0,.8,2.9A5.322,5.322,0,0,0,5.4,40H40.7a5.135,5.135,0,0,0,2.5-.6,5.577,5.577,0,0,0,2.9-5.3C46.1,24.6,46.2,15,46.2,5.5Z"/>
</svg>
