<svg id="design" xmlns="http://www.w3.org/2000/svg" viewBox="0 0 31.9 40.3">
  <g id="Group_7" data-name="Group 7">
    <path id="Path_5" data-name="Path 5" d="M26,20.1h-.8v-.8a.789.789,0,0,0-.8-.8H2.5a.789.789,0,0,0-.8.8V36.1a4.225,4.225,0,0,0,4.2,4.2H21a4.225,4.225,0,0,0,4.2-4.2V31.9H26A5.911,5.911,0,0,0,31.9,26,5.977,5.977,0,0,0,26,20.1Zm0,10.1h-.8V21.8H26a4.2,4.2,0,1,1,0,8.4ZM19.3,16.8h3.4a1.02,1.02,0,0,0,.8-.5l2.6-5.2c1.7-.2,3-1.7,3.2-3.9A6.444,6.444,0,0,0,24.4.1a1.008,1.008,0,0,0-.9.3.746.746,0,0,0,0,.9c.9,1.4.4,2.2-.6,3.3A5.507,5.507,0,0,0,22,6a3.871,3.871,0,0,0-.1,2.8,3.592,3.592,0,0,0,.7,1l-3.3,4.7-.3.4-.4.6a.972.972,0,0,0-.1.9C18.6,16.7,19,16.8,19.3,16.8Zm4.2-10a4.616,4.616,0,0,1,.7-1,5.024,5.024,0,0,0,1.4-3.3,4.926,4.926,0,0,1,2,4.5c-.1,1.1-.8,2.5-2,2.5h0L24.1,9a1.555,1.555,0,0,1-.6-.8A1.4,1.4,0,0,1,23.5,6.8ZM1.3,6.8a.94.94,0,0,0-.9.1c-.3.1-.4.5-.4.8l.8,4.7L4.9,9Zm2.9,10H9.3a.86.86,0,0,0,.8-.8.86.86,0,0,0,.8.8h6.7a.789.789,0,0,0,.8-.8v-.8H16.3a.8.8,0,0,1,0-1.6h2.1V11.9H14.2a.8.8,0,0,1,0-1.6h4.2V8.4H16.3a.8.8,0,1,1,0-1.6h2.1V5H14.2a.8.8,0,1,1,0-1.6h4.2V.8a.789.789,0,0,0-.8-.8H10.9a.789.789,0,0,0-.8.8v15a.764.764,0,0,0-.2-.5L6.2,10.1,1.7,13.9l1.9,2.6A.6.6,0,0,0,4.2,16.8Z"/>
  </g>
</svg>
