<?xml version="1.0" encoding="utf-8"?>
<!-- Generator: Adobe Illustrator 20.1.0, SVG Export Plug-In . SVG Version: 6.00 Build 0)  -->
<svg version="1.1" id="Layer_1" xmlns="http://www.w3.org/2000/svg" xmlns:xlink="http://www.w3.org/1999/xlink" x="0px" y="0px"
	 viewBox="0 0 40 40" style="enable-background:new 0 0 40 40;" xml:space="preserve">
<style type="text/css">
	.st0{fill:#ED527F;}
</style>
<path class="st0" d="M20,0C12.9,0,5.7,1.3,3.1,3.8C1,5.9,0.3,9.6,0,12c0,0,0,0.2,0,0.3C0,13.3,0.7,14,1.7,14c0.1,0,4.1-0.3,6.5-0.5
	c0.1,0,0.1,0,0.2,0c0.9,0,1.6-0.8,1.6-1.7l0-3.3c0-1,0.8-1.8,1.8-1.8h16.3c1,0,1.8,0.8,1.8,1.8l0,3.3c0,0.9,0.7,1.6,1.6,1.7
	c0.1,0,0.1,0,0.2,0c2.4,0.2,6.4,0.5,6.5,0.5c0.9,0,1.7-0.7,1.7-1.7c0-0.1,0-0.3,0-0.3c-0.2-2.4-1-6.1-3.1-8.2C34.3,1.3,27.1,0,20,0z
	 M20,21.7c-1.8,0-3.3,1.5-3.3,3.3s1.5,3.3,3.3,3.3c1.8,0,3.3-1.5,3.3-3.3S21.8,21.7,20,21.7z M17.5,14.2v-2.1c0-1.1-0.9-2.1-2.1-2.1
	s-2.1,0.9-2.1,2.1v2.1l-11.2,12c-0.8,0.8-1.3,1.8-1.3,3v3.3c0,1.8,1.5,3.3,3.3,3.3H5v2.1C5,39.1,5.9,40,7.1,40s2.1-0.9,2.1-2.1v-2.1
	h21.7v2.1c0,1.1,0.9,2.1,2.1,2.1c1.1,0,2.1-0.9,2.1-2.1v-2.1h0.8c1.8,0,3.3-1.5,3.3-3.3v-3.3c0-1.2-0.5-2.2-1.3-3l-11.2-12v-2.1
	c0-1.1-0.9-2.1-2.1-2.1c-1.1,0-2.1,0.9-2.1,2.1v2.1H17.5z M20,18.3c3.7,0,6.7,3,6.7,6.7c0,3.7-3,6.7-6.7,6.7c-3.7,0-6.7-3-6.7-6.7
	C13.3,21.3,16.3,18.3,20,18.3z"/>
</svg>
