<svg id="webdesign" xmlns="http://www.w3.org/2000/svg" viewBox="0 0 46.2 40">
  <path id="Path_6" data-name="Path 6" d="M43.1,34.5a2.337,2.337,0,0,1-2.5,2.4H5.5A2.312,2.312,0,0,1,3,34.4V9.2H43v1.4C43.1,18.6,43.1,26.5,43.1,34.5ZM4.6,3.1A1.538,1.538,0,0,1,6.1,4.6,1.538,1.538,0,0,1,4.6,6.1,1.538,1.538,0,0,1,3.1,4.6,1.473,1.473,0,0,1,4.6,3.1Zm4.6,0a1.538,1.538,0,0,1,1.5,1.5,1.5,1.5,0,0,1-3,0A1.538,1.538,0,0,1,9.2,3.1Zm4.6,0a1.538,1.538,0,0,1,1.5,1.5,1.5,1.5,0,0,1-3,0A1.538,1.538,0,0,1,13.8,3.1ZM46.2,5.5A5.3,5.3,0,0,0,40.7,0H5.6A5.355,5.355,0,0,0,0,5.6v29a6.026,6.026,0,0,0,.8,2.9A5.322,5.322,0,0,0,5.4,40H40.7a5.135,5.135,0,0,0,2.5-.6,5.577,5.577,0,0,0,2.9-5.3C46.1,24.6,46.2,15,46.2,5.5Z"/>
  <g id="Group_8" data-name="Group 8">
    <path id="Path_7" data-name="Path 7" d="M20.1,20.7a15.377,15.377,0,0,0-1.6,2.6,7.832,7.832,0,0,1,2.3,2.8,21.881,21.881,0,0,0,2.9-1.6C28.7,20.2,41,5,40.6,4.6,40.2,4.1,24.5,15.9,20.1,20.7ZM17,24.5c-2.2-.4-4.3,1-5.8,4.4-1.4,3.5-4,4.8-4.5,4.8,2.7,1,10.9,3.5,12.9-6A6.359,6.359,0,0,0,17,24.5Z"/>
  </g>
</svg>
