<?xml version="1.0" encoding="utf-8"?>
<!-- Generator: Adobe Illustrator 20.1.0, SVG Export Plug-In . SVG Version: 6.00 Build 0)  -->
<svg version="1.1" id="Layer_1" xmlns="http://www.w3.org/2000/svg" xmlns:xlink="http://www.w3.org/1999/xlink" x="0px" y="0px"
	 viewBox="0 0 47 40" style="enable-background:new 0 0 47 40;" xml:space="preserve">
<style type="text/css">
	.st0{fill:#ED527F;}
</style>
<g>
	<path class="st0" d="M43.1,34.5c0,1.4-1,2.4-2.5,2.4c-11.7,0-23.4,0-35.1,0c-1.6,0-2.5-1-2.5-2.5c0-8.3,0-16.5,0-24.8
		c0-0.1,0-0.3,0-0.4c13.3,0,26.7,0,40,0c0,0.5,0,0.9,0,1.4C43.1,18.6,43.1,26.5,43.1,34.5z M4.6,3.1c0.8,0,1.5,0.7,1.5,1.5
		S5.4,6.1,4.6,6.1S3.1,5.4,3.1,4.6S3.7,3.1,4.6,3.1z M9.2,3.1c0.8,0,1.5,0.7,1.5,1.5S10,6.1,9.2,6.1S7.7,5.4,7.7,4.6
		S8.4,3.1,9.2,3.1z M13.8,3.1c0.8,0,1.5,0.7,1.5,1.5s-0.7,1.5-1.5,1.5s-1.5-0.7-1.5-1.5S13,3.1,13.8,3.1z M46.2,5.5
		c0-3.2-2.3-5.5-5.5-5.5C34.8,0,29,0,23.1,0C17.3,0,11.4,0,5.6,0C2.3,0,0,2.3,0,5.6c0,2.4,0,4.8,0,7.3c0,7.2,0,14.5,0,21.7
		c0,1,0.3,2,0.8,2.9C1.9,39.1,3.4,40,5.4,40c3.9,0,7.8,0,11.6,0c7.9,0,15.8,0,23.7,0c0.9,0,1.8-0.2,2.5-0.6c2.1-1.2,2.9-3,2.9-5.3
		C46.1,24.6,46.2,15,46.2,5.5z"/>
	<g>
		<path class="st0" d="M20.1,20.7c-0.6,0.7-0.8,1.2-1.6,2.6c0.5,0.4,1.6,1.3,2.3,2.8c1.5-0.8,2.1-1,2.9-1.6C28.7,20.2,41,5,40.6,4.6
			C40.2,4.1,24.5,15.9,20.1,20.7z M17,24.5c-2.2-0.4-4.3,1-5.8,4.4c-1.4,3.5-4,4.8-4.5,4.8c2.7,1,10.9,3.5,12.9-6
			C18.7,25.4,17,24.5,17,24.5z"/>
	</g>
</g>
</svg>
